<svg width="300" height="300" xmlns="http://www.w3.org/2000/svg">

 <g>
  <title>background</title>
  <rect fill="none" id="canvas_background" height="302" width="302" y="-1" x="-1"/>
 </g>
 <g>
  <title>Layer 1</title>
  <g stroke="null" id="svg_1">
   <g stroke="null" id="svg_2">
    <path stroke="null" id="svg_3" d="m25.481,248.755993l8.894,0l5.109,24.158l5.231,-24.158l9.141,0l-9.725,33.545l-9.017,0l-5.264,-24.436l-5.324,24.436l-9.109,0l-9.417,-33.545l9.417,0l5.232,24.066l4.832,-24.066z" fill="#4B4B4B"/>
    <path stroke="null" id="svg_4" d="m78.266,249.435993c2.34,1.048 4.272,2.702 5.797,4.962c1.374,1.993 2.265,4.305 2.673,6.936c0.235,1.541 0.332,3.76 0.288,6.657l-24.432,0c0.137,3.365 1.306,5.725 3.509,7.078c1.339,0.842 2.951,1.262 4.836,1.262c1.998,0 3.62,-0.513 4.87,-1.538c0.682,-0.555 1.283,-1.323 1.805,-2.309l8.955,0c-0.236,1.99 -1.32,4.012 -3.252,6.062c-3.006,3.263 -7.211,4.894 -12.62,4.894c-4.464,0 -8.403,-1.376 -11.815,-4.127c-3.413,-2.752 -5.119,-7.229 -5.119,-13.431c0,-5.811 1.54,-10.267 4.621,-13.367c3.08,-3.101 7.078,-4.651 11.996,-4.651c2.918,-0.001 5.548,0.524 7.888,1.572zm-13.121,7.577c-1.24,1.277 -2.02,3.008 -2.338,5.192l15.111,0c-0.16,-2.329 -0.938,-4.096 -2.336,-5.301c-1.398,-1.206 -3.133,-1.809 -5.202,-1.809c-2.251,0.001 -3.996,0.639 -5.235,1.918z" fill="#4B4B4B"/>
    <path stroke="null" id="svg_5" d="m119.383,252.786993c2.51,3.181 3.764,7.284 3.764,12.311c0,5.211 -1.237,9.53 -3.713,12.956c-2.475,3.427 -5.928,5.14 -10.361,5.14c-2.785,0 -5.021,-0.554 -6.713,-1.662c-1.011,-0.656 -2.104,-1.805 -3.278,-3.446l0,4.216l-8.648,0l0,-45.302l8.771,0l0,16.126c1.115,-1.559 2.344,-2.749 3.686,-3.57c1.591,-1.025 3.614,-1.538 6.07,-1.538c4.437,0 7.913,1.589 10.422,4.769zm-7.331,20.435c1.262,-1.825 1.894,-4.226 1.894,-7.201c0,-2.38 -0.311,-4.35 -0.932,-5.908c-1.179,-2.955 -3.351,-4.432 -6.516,-4.432c-3.207,0 -5.41,1.446 -6.609,4.339c-0.621,1.539 -0.932,3.529 -0.932,5.971c0,2.872 0.642,5.252 1.925,7.14c1.282,1.888 3.236,2.831 5.864,2.831c2.276,-0.001 4.044,-0.913 5.306,-2.74z" fill="#4B4B4B"/>
    <path stroke="null" id="svg_6" d="m151.654,248.940993c1.684,0.719 3.068,1.817 4.15,3.296c0.92,1.253 1.481,2.542 1.686,3.866s0.307,3.485 0.307,6.483l0,19.714l-8.955,0l0,-20.426c0,-1.808 -0.307,-3.267 -0.918,-4.375c-0.793,-1.561 -2.301,-2.342 -4.52,-2.342c-2.303,0 -4.048,0.775 -5.24,2.326c-1.191,1.551 -1.787,3.764 -1.787,6.64l0,18.178l-8.771,0l0,-45.209l8.771,0l0,16.003c1.268,-1.948 2.733,-3.308 4.396,-4.077c1.666,-0.77 3.418,-1.154 5.258,-1.154c2.063,-0.001 3.937,0.359 5.623,1.077z" fill="#4B4B4B"/>
    <path stroke="null" id="svg_7" d="m192.034,278.196993c-2.831,3.495 -7.13,5.242 -12.895,5.242c-5.766,0 -10.063,-1.747 -12.896,-5.242c-2.83,-3.495 -4.246,-7.702 -4.246,-12.623c0,-4.837 1.416,-9.029 4.246,-12.576c2.832,-3.546 7.13,-5.319 12.896,-5.319c5.765,0 10.063,1.773 12.895,5.319c2.832,3.547 4.247,7.739 4.247,12.576c0,4.921 -1.415,9.128 -4.247,12.623zm-7.016,-4.847c1.374,-1.823 2.062,-4.415 2.062,-7.775c0,-3.359 -0.688,-5.946 -2.062,-7.759c-1.375,-1.812 -3.344,-2.72 -5.908,-2.72c-2.565,0 -4.54,0.907 -5.925,2.72s-2.077,4.399 -2.077,7.759c0,3.36 0.692,5.952 2.077,7.775s3.359,2.734 5.925,2.734c2.564,0 4.533,-0.911 5.908,-2.734z" fill="#4B4B4B"/>
    <path stroke="null" id="svg_8" d="m228.818,278.196993c-2.83,3.495 -7.129,5.242 -12.895,5.242s-10.062,-1.747 -12.893,-5.242c-2.832,-3.495 -4.248,-7.702 -4.248,-12.623c0,-4.837 1.416,-9.029 4.248,-12.576c2.83,-3.546 7.127,-5.319 12.893,-5.319s10.064,1.773 12.895,5.319c2.832,3.547 4.248,7.739 4.248,12.576c0,4.921 -1.416,9.128 -4.248,12.623zm-7.015,-4.847c1.373,-1.823 2.062,-4.415 2.062,-7.775c0,-3.359 -0.689,-5.946 -2.062,-7.759c-1.375,-1.812 -3.344,-2.72 -5.908,-2.72c-2.565,0 -4.541,0.907 -5.926,2.72s-2.076,4.399 -2.076,7.759c0,3.36 0.691,5.952 2.076,7.775s3.36,2.734 5.926,2.734c2.564,0 4.533,-0.911 5.908,-2.734z" fill="#4B4B4B"/>
    <path stroke="null" id="svg_9" d="m237.412,237.091993l8.617,0l0,24.472l11.062,-12.653l10.907,0l-12.024,12.496l12.489,20.895l-10.674,0l-8.127,-14.332l-3.633,3.776l0,10.556l-8.617,0l0,-45.21z" fill="#4B4B4B"/>
    <path stroke="null" id="svg_10" d="m276.85,271.590993c0.186,1.56 0.588,2.668 1.206,3.324c1.093,1.169 3.112,1.754 6.06,1.754c1.732,0 3.108,-0.256 4.129,-0.77c1.021,-0.513 1.531,-1.282 1.531,-2.308c0,-0.985 -0.41,-1.733 -1.233,-2.247c-0.822,-0.513 -3.881,-1.395 -9.176,-2.646c-3.812,-0.943 -6.497,-2.124 -8.058,-3.539c-1.558,-1.396 -2.338,-3.405 -2.338,-6.032c0,-3.098 1.219,-5.76 3.655,-7.986c2.437,-2.226 5.864,-3.339 10.285,-3.339c4.194,0 7.612,0.836 10.255,2.508c2.642,1.673 4.158,4.561 4.549,8.664l-8.771,0c-0.124,-1.129 -0.442,-2.021 -0.956,-2.678c-0.968,-1.189 -2.614,-1.785 -4.939,-1.785c-1.912,0 -3.275,0.298 -4.088,0.893c-0.812,0.596 -1.219,1.293 -1.219,2.093c0,1.006 0.432,1.734 1.296,2.185c0.864,0.473 3.916,1.283 9.159,2.432c3.492,0.821 6.111,2.062 7.855,3.724c1.724,1.683 2.586,3.785 2.586,6.309c0,3.324 -1.24,6.038 -3.717,8.141c-2.478,2.103 -6.307,3.154 -11.486,3.154c-5.283,0 -9.185,-1.113 -11.702,-3.339c-2.519,-2.227 -3.778,-5.062 -3.778,-8.51l8.895,0l0,-0.002z" fill="#4B4B4B"/>
   </g>
  </g>
  <g stroke="null" id="svg_22">
   <g stroke="null" transform="matrix(1.7520993672887495,0,0,1.809186487020358,-41748.457783560436,-11916.069075648586) " id="svg_17">
    <g stroke="null" id="svg_15">
     <g stroke="null" id="svg_18">
      <path stroke="null" id="svg_19" d="m23905.14691,6644.676145c-5.367,9.022 -10.509,17.759 -15.758,26.43c-1.348,2.226 -2.015,4.039 -0.938,6.869c2.973,7.817 -1.221,15.424 -9.104,17.489c-7.434,1.948 -14.677,-2.938 -16.152,-10.897c-1.307,-7.045 4.16,-13.951 11.927,-15.052c0.651,-0.093 1.315,-0.104 2.409,-0.186c3.806,-6.382 7.705,-12.919 11.815,-19.812c-7.431,-7.389 -11.854,-16.027 -10.875,-26.73c0.692,-7.566 3.667,-14.104 9.105,-19.463c10.415,-10.262 26.304,-11.924 38.567,-4.047c11.778,7.566 17.172,22.304 12.574,34.918c-3.467,-0.94 -6.958,-1.888 -10.796,-2.929c1.444,-7.013 0.376,-13.311 -4.354,-18.706c-3.125,-3.562 -7.135,-5.429 -11.695,-6.117c-9.141,-1.381 -18.116,4.492 -20.779,13.464c-3.023,10.183 1.552,18.501 14.054,24.769z" fill="#C73A63" clip-rule="evenodd" fill-rule="evenodd"/>
      <path stroke="null" id="svg_20" d="m23920.47391,6634.007145c3.781,6.67 7.62,13.441 11.425,20.15c19.232,-5.95 33.732,4.696 38.934,16.094c6.283,13.768 1.988,30.075 -10.352,38.569c-12.666,8.72 -28.684,7.23 -39.906,-3.971c2.86,-2.394 5.734,-4.799 8.805,-7.368c11.084,7.179 20.778,6.841 27.975,-1.66c6.137,-7.252 6.004,-18.065 -0.311,-25.165c-7.288,-8.193 -17.05,-8.443 -28.85,-0.578c-4.895,-8.684 -9.875,-17.299 -14.615,-26.046c-1.598,-2.948 -3.363,-4.658 -6.965,-5.282c-6.016,-1.043 -9.9,-6.209 -10.133,-11.997c-0.229,-5.724 3.143,-10.898 8.414,-12.914c5.221,-1.997 11.348,-0.385 14.86,4.054c2.87,3.627 3.782,7.709 2.272,12.182c-0.42,1.247 -0.964,2.454 -1.553,3.932z" fill="#4B4B4B" clip-rule="evenodd" fill-rule="evenodd"/>
      <path stroke="null" id="svg_21" d="m23929.51091,6688.535145c-7.605,0 -15.238,0 -23.152,0c-2.219,9.127 -7.012,16.496 -15.271,21.182c-6.42,3.642 -13.34,4.877 -20.705,3.688c-13.56,-2.187 -24.648,-14.394 -25.624,-28.14c-1.105,-15.571 9.598,-29.412 23.864,-32.521c0.985,3.577 1.98,7.188 2.965,10.756c-13.089,6.678 -17.619,15.092 -13.956,25.613c3.225,9.259 12.385,14.334 22.331,12.371c10.157,-2.004 15.278,-10.445 14.653,-23.992c9.629,0 19.266,-0.1 28.896,0.049c3.76,0.059 6.663,-0.331 9.496,-3.646c4.664,-5.455 13.248,-4.963 18.271,0.189c5.133,5.265 4.887,13.737 -0.545,18.78c-5.241,4.866 -13.521,4.606 -18.424,-0.637c-1.008,-1.081 -1.802,-2.364 -2.799,-3.692z" fill="#4A4A4A" clip-rule="evenodd" fill-rule="evenodd"/>
     </g>
    </g>
   </g>
  </g>
 </g>
</svg>